<svg xmlns="http://www.w3.org/2000/svg" viewBox="0 0 600 650" role="img" aria-labelledby="title desc">
<title id="title">Cafetería</title><desc id="desc">Una acogedora cafetería marrón y verde</desc>
<defs><linearGradient id="wood" x2="0" y2="1"><stop stop-color="#9a481d"/><stop offset="1" stop-color="#3e160b"/></linearGradient><filter id="shadow"><feDropShadow dx="0" dy="8" stdDeviation="7" flood-opacity=".25"/></filter></defs>
<rect width="600" height="650" rx="36" fill="#f7f4ed"/>
<g filter="url(#shadow)"><path fill="#55200d" d="M92 153h416v48H92z"/><path fill="#7c3314" d="M72 188h456v66H72z"/><path fill="#d08a3e" d="M65 188h470v15H65z"/><text x="300" y="235" text-anchor="middle" fill="#ffe0a0" stroke="#4b1c0b" stroke-width="3" font-family="Georgia,serif" font-size="45" font-weight="700">CAFETERÍA</text>
<path fill="#613019" d="M96 306h408v269H96z"/><path fill="#8c431c" d="M107 320h386v244H107z"/><path fill="#f7e8c7" d="M56 254h488l-24 76H80z"/><path fill="#08743d" d="M56 254h61l-18 76H80zm122 0h61l-6 76h-61zm122 0h61l6 76h-61zm122 0h61l18 76h-61z"/><path fill="#006b39" d="M56 254h488v18H56z"/><g fill="#075a31"><circle cx="82" cy="330" r="22"/><circle cx="154" cy="330" r="22"/><circle cx="226" cy="330" r="22"/><circle cx="300" cy="330" r="22"/><circle cx="374" cy="330" r="22"/><circle cx="446" cy="330" r="22"/><circle cx="518" cy="330" r="22"/></g>
<path fill="#52200f" stroke="#d17b35" stroke-width="6" d="M332 326h127v238H332z"/><path fill="#8b431e" stroke="#3d160b" stroke-width="5" d="M346 352h99v86h-99zm0 103h99v92h-99z"/><path fill="#1d261d" d="M356 382h78v35h-78z"/><text x="395" y="405" text-anchor="middle" fill="#fff1c8" font-family="Arial,sans-serif" font-size="13" font-weight="700">ABIERTO</text><circle cx="430" cy="499" r="5" fill="#e7b34f"/>
<g fill="#263928" stroke="#dda04d" stroke-width="5"><path d="M116 348h85v151h-85z"/><path d="M214 348h97v151h-97z"/></g><g fill="#d89843"><rect x="126" y="402" width="64" height="5"/><rect x="224" y="402" width="77" height="5"/><rect x="224" y="451" width="77" height="5"/></g>
<path fill="#6f2d15" d="M60 520h244v75H60z"/><path fill="#9b4d20" d="M71 535h222v49H71z"/><g fill="#16713c"><circle cx="78" cy="518" r="25"/><circle cx="116" cy="508" r="30"/><circle cx="158" cy="518" r="27"/><circle cx="202" cy="507" r="31"/><circle cx="250" cy="518" r="28"/><circle cx="286" cy="510" r="25"/></g>
<path fill="#352016" d="M463 472h90l-8 134h-92z"/><path fill="#171b18" stroke="#8c4a23" stroke-width="7" d="M468 484h78l-7 103h-79z"/><text x="503" y="520" text-anchor="middle" fill="#fff" font-family="Georgia,serif" font-size="16" font-style="italic">Café</text><text x="503" y="542" text-anchor="middle" fill="#fff" font-family="Georgia,serif" font-size="12">Buenos Momentos</text>
<g transform="translate(300 113)"><ellipse rx="105" ry="57" fill="#813813"/><ellipse rx="93" ry="47" fill="#f0bd62"/><ellipse rx="82" ry="39" fill="#f7f1e3"/><path fill="#fff7e6" stroke="#54200e" stroke-width="6" d="M-55-12h105l-11 58h-78z"/><path fill="none" stroke="#54200e" stroke-width="8" d="M49 0q47 0 25 34-11 15-31 8"/><path fill="none" stroke="#fff7e6" stroke-width="10" stroke-linecap="round" d="M-20-32q-15-18 5-33m24 35q-17-22 5-42"/><ellipse cx="-3" cy="-9" rx="48" ry="8" fill="#572414"/></g></g>
</svg>
